#!OML:ASF E:\Steps\Project 1\Capture day 1\Session 2\Subject.ASF
:FULLY-SPECIFIED
:DEGREES
460
root 2.63067 17.8077 12.3617 -145.869 -8.12307 174.207
lowerback -11.7642 -4.21587 -1.32773
upperback 1.65199 -5.5331 1.17473
thorax 8.60877 -2.7768 0.935001
lowerneck -0.591633 -3.67615 -0.772282
upperneck 11.2658 -4.81086 3.60937
head 3.89652 -2.08229 1.16985
rclavicle -2.79292e-014 2.84262e-014
rhumerus -39.0649 -7.34261 -75.081
rradius 45.6024
rwrist -7.82393
rhand -10.1292 -53.1252
rfingers 7.12502
rthumb -164.141 -262.496
lclavicle -2.79292e-014 2.84262e-014
lhumerus -17.3122 -18.1499 76.5201
lradius 45.5398
lwrist 6.46603
lhand -24.4376 -15.5066
lfingers 7.12502
lthumb 2.05474 14.4633
rfemur -66.3234 -2.9655 9.36103
rtibia 39.7495
rfoot -15.0277 -6.98486
rtoes -16.7591
lfemur -22.7145 -9.57774 -11.5224
ltibia 29.866
lfoot 16.1727 16.952
ltoes -12.5081
461
root 2.67229 17.8641 12.2956 -145.813 -8.05693 174.249
lowerback -11.845 -4.16218 -1.3335
upperback 1.5637 -5.459 1.16434
thorax 8.55615 -2.74085 0.939601
lowerneck -0.16873 -3.35579 -0.662242
upperneck 10.6826 -4.35732 3.26784
head 3.58217 -1.88894 1.05879
rclavicle -1.39149e-015 7.15625e-015
rhumerus -38.8731 -7.4942 -74.7815
rradius 45.6593
rwrist -7.80835
rhand -9.60687 -53.2063
rfingers 7.12502
rthumb -163.638 -262.536
lclavicle -1.39149e-015 7.15625e-015
lhumerus -17.8485 -18.1533 76.7443
lradius 45.4633
lwrist 6.06823
lhand -23.8595 -15.558
lfingers 7.12502
lthumb 2.61304 14.4057
rfemur -65.769 -2.42893 9.31974
rtibia 39.1541
rfoot -15.0784 -7.0822
rtoes -15.1143
lfemur -23.879 -9.24358 -11.6678
ltibia 32.2306
lfoot 14.6052 18.1482
ltoes -12.4817
462
root 2.71072 17.9122 12.2292 -145.664 -7.92116 174.386
lowerback -12.201 -4.01521 -1.23058
upperback 1.55001 -5.26888 1.07801
thorax 8.72018 -2.64 0.804028
lowerneck -1.05909 -3.69039 -1.07967
upperneck 11.8033 -4.83548 3.83074
head 4.19956 -2.07661 1.29158
rclavicle -2.05742e-014 1.35174e-014
rhumerus -38.694 -7.81297 -74.7063
rradius 45.8008
rwrist -7.80305
rhand -9.93956 -52.272
rfingers 7.12502
rthumb -163.958 -261.628
lclavicle -2.05742e-014 1.35174e-014
lhumerus -18.0188 -18.3016 76.8616
lradius 45.1013
lwrist 5.6677
lhand -23.5384 -16.0002
lfingers 7.12502
lthumb 2.92314 13.9596
rfemur -65.3039 -1.84744 9.3876
rtibia 38.3881
rfoot -15.0199 -7.18518
rtoes -14.7022
lfemur -25.1632 -8.74435 -11.7677
ltibia 34.6248
lfoot 12.6659 19.7229
ltoes -9.97334
463
root 2.74983 17.9585 12.1604 -145.641 -7.8448 174.428
lowerback -12.4759 -3.94145 -1.26184
upperback 1.50506 -5.15665 0.984527
thorax 8.81906 -2.58378 0.727591
lowerneck -0.356368 -3.47938 -0.681402
upperneck 11.2174 -4.53028 3.5748
head 3.82213 -1.93875 1.15648
rclavicle -2.41523e-014 8.74653e-015
rhumerus -38.7743 -7.88368 -74.7316
rradius 46.0369
rwrist -7.78574
rhand -10.5084 -51.1401
rfingers 7.12502
rthumb -164.506 -260.539
lclavicle -2.41523e-014 8.74653e-015
lhumerus -18.4125 -18.5127 77.0005
lradius 44.7558
lwrist 5.38842
lhand -24.0575 -16.5783
lfingers 7.12502
lthumb 2.42181 13.3877
rfemur -64.606 -1.40473 9.44799
rtibia 37.529
rfoot -14.953 -7.22945
rtoes -14.6158
lfemur -26.3047 -8.47407 -11.9419
ltibia 36.9599
lfoot 11.6169 20.6143
ltoes -8.88216
464
root 2.7926 18.0068 12.0927 -145.831 -7.80933 174.346
lowerback -12.3934 -3.93121 -1.45553
upperback 1.52687 -5.1065 0.889976
thorax 8.8023 -2.56687 0.74989
lowerneck -0.45445 -3.54852 -0.80274
upperneck 11.3417 -4.63329 3.74247
head 3.89784 -1.98262 1.2289
rclavicle -6.17226e-014 -1.17283e-014
rhumerus -38.6879 -7.9438 -74.7687
rradius 46.1682
rwrist -7.64249
rhand -10.6355 -50.6593
rfingers 7.12502
rthumb -164.628 -260.068
lclavicle -6.17226e-014 -1.17283e-014
lhumerus -18.8105 -18.5529 77.0979
lradius 44.5226
lwrist 5.16342
lhand -24.2585 -16.8776
lfingers 7.12502
lthumb 2.22766 13.0905
rfemur -63.7293 -0.991494 9.38039
rtibia 36.8343
rfoot -14.9962 -7.32904
rtoes -14.2546
lfemur -27.2223 -8.41272 -12.2545
ltibia 39.2515
lfoot 12.1279 20.3854
ltoes -15.3462
465
root 2.83522 18.0554 12.0261 -146.074 -7.77483 174.244
lowerback -12.2609 -3.95594 -1.71692
upperback 1.4944 -5.09607 0.814308
thorax 8.7071 -2.57341 0.827362
lowerneck -0.428533 -3.6497 -0.842144
upperneck 11.6441 -4.76149 3.85231
head 4.00989 -2.0283 1.26922
rclavicle -6.95746e-016 -6.4605e-015
rhumerus -38.6383 -7.8448 -74.7974
rradius 46.1961
rwrist -7.63076
rhand -10.7931 -50.2014
rfingers 7.12502
rthumb -164.78 -259.622
lclavicle -6.95746e-016 -6.4605e-015
lhumerus -19.4028 -18.3854 77.2707
lradius 44.2892
lwrist 4.69799
lhand -24.0892 -16.9101
lfingers 7.12502
lthumb 2.39123 13.0563
rfemur -62.8103 -0.59079 9.31114
rtibia 36.1662
rfoot -15.0264 -7.50569
rtoes -14.1815
lfemur -28.1064 -8.4272 -12.6038
ltibia 41.562
lfoot 12.4291 20.1945
ltoes -19.8841
466
root 2.87483 18.0982 11.9593 -146.207 -7.66259 174.247
lowerback -12.3534 -3.94737 -1.88791
upperback 1.47434 -5.05368 0.757023
thorax 8.74687 -2.5597 0.86458
lowerneck -0.100135 -3.5041 -0.953743
upperneck 11.234 -4.5683 3.91307
head 3.80035 -1.95099 1.31974
rclavicle -3.39425e-014 2.80286e-014
rhumerus -38.4989 -7.65807 -74.8698
rradius 46.1619
rwrist -7.75299
rhand -10.8435 -49.9796
rfingers 7.12502
rthumb -164.829 -259.403
lclavicle -3.39425e-014 2.80286e-014
lhumerus -19.9278 -18.2329 77.4121
lradius 44.0021
lwrist 4.26132
lhand -23.9715 -16.8536
lfingers 7.12502
lthumb 2.5049 13.1115
rfemur -62.0627 -0.176388 9.37977
rtibia 35.49
rfoot -14.949 -7.65931
rtoes -14.2898
lfemur -29.1144 -8.30239 -12.8878
ltibia 43.8153
lfoot 12.1234 20.4591
ltoes -17.9833
467
root 2.91077 18.1348 11.8927 -146.313 -7.52685 174.39
lowerback -12.5013 -3.81699 -1.81191
upperback 1.57169 -4.87933 0.644118
thorax 8.91362 -2.46826 0.724238
lowerneck -0.968002 -3.67534 -1.00215
upperneck 12.0685 -4.81785 4.06766
head 4.28339 -2.03672 1.36159
rclavicle 1.80894e-014 5.26779e-015
rhumerus -38.2283 -7.77897 -75.0421
rradius 46.2163
rwrist -7.79585
rhand -10.6984 -50.2026
rfingers 7.12502
rthumb -164.689 -259.616
lclavicle 1.80894e-014 5.26779e-015
lhumerus -20.0492 -18.4647 77.4128
lradius 43.6292
lwrist 4.34642
lhand -23.651 -16.3995
lfingers 7.12502
lthumb 2.81436 13.5617
rfemur -61.3951 0.294599 9.59124
rtibia 34.8362
rfoot -14.8967 -7.68134
rtoes -13.7381
lfemur -30.1307 -8.15752 -13.0373
ltibia 45.963
lfoot 11.7652 20.2306
ltoes -16.6326
468
root 2.94644 18.1719 11.8292 -146.45 -7.51388 174.575
lowerback -12.6361 -3.68539 -1.65739
upperback 1.68488 -4.71676 0.546842
thorax 9.08679 -2.37869 0.555116
lowerneck -1.64691 -3.83365 -1.01464
upperneck 12.6311 -5.04664 4.12148
head 4.63383 -2.12533 1.36406
rclavicle -1.43622e-014 -1.90336e-014
rhumerus -37.99 -8.00514 -75.2256
rradius 46.2789
rwrist -7.8246
rhand -10.6631 -50.3678
rfingers 7.12502
rthumb -164.655 -259.778
lclavicle -1.43622e-014 -1.90336e-014
lhumerus -20.1036 -18.7106 77.3984
lradius 43.2693
lwrist 4.66407
lhand -23.2816 -15.8363
lfingers 7.12502
lthumb 3.1712 14.1198
rfemur -60.6831 0.798753 9.83205
rtibia 34.1889
rfoot -14.935 -7.69777
rtoes -13.1374
lfemur -31.1858 -8.18158 -13.0415
ltibia 48.1504
lfoot 11.6557 18.7861
ltoes -20.4872
469
root 2.98426 18.206 11.7651 -146.616 -7.46512 174.693
lowerback -12.8885 -3.64135 -1.73966
upperback 1.52555 -4.63813 0.473593
thorax 9.05602 -2.34304 0.52924
lowerneck -0.133205 -3.66251 -0.701448
upperneck 11.7026 -4.76812 3.95692
head 3.97303 -2.01248 1.28426
rclavicle -2.68359e-015 1.05853e-014
rhumerus -38.414 -7.80322 -75.3603
rradius 46.3509
rwrist -8.04827
rhand -10.6739 -50.0179
rfingers 7.12502
rthumb -164.665 -259.429
lclavicle -2.68359e-015 1.05853e-014
lhumerus -20.9543 -18.6546 77.5925
lradius 42.9603
lwrist 4.76552
lhand -23.0092 -15.4206
lfingers 7.12502
lthumb 3.43425 14.5314
rfemur -59.9983 1.28089 10.0046
rtibia 33.5909
rfoot -14.9707 -7.74687
rtoes -12.9226
lfemur -32.1831 -8.1027 -13.1811
ltibia 50.1922
lfoot 11.8874 16.7106
ltoes -26.4851
470
root 3.02123 18.2371 11.7017 -146.842 -7.30971 174.681
lowerback -12.7948 -3.70977 -1.88327
upperback 1.66943 -4.70281 0.421836
thorax 9.16888 -2.38017 0.540784
lowerneck -0.316862 -3.3003 -0.519299
upperneck 11.1461 -4.29767 3.65301
head 3.78074 -1.81303 1.16306
rclavicle -8.60986e-015 2.98177e-015
rhumerus -37.8459 -7.37385 -75.6773
rradius 46.2751
rwrist -8.30445
rhand -10.6541 -50.1798
rfingers 7.12502
rthumb -164.646 -259.59
lclavicle -8.60986e-015 2.98177e-015
lhumerus -21.0872 -17.9769 77.5558
lradius 42.5321
lwrist 4.54157
lhand -22.8567 -15.1944
lfingers 7.12502
lthumb 3.58148 14.7553
rfemur -59.1792 1.63184 10.0815
rtibia 32.8703
rfoot -14.9356 -7.66337
rtoes -12.1314
lfemur -33.0362 -8.01036 -13.5631
ltibia 52.0658
lfoot 11.6144 15.2059
ltoes -29.1608
471
root 3.05555 18.2702 11.6431 -147.044 -7.20912 174.671
lowerback -12.7544 -3.62459 -1.99895
upperback 1.62773 -4.5603 0.253852
thorax 9.09018 -2.31387 0.460417
lowerneck -0.985221 -3.53125 -0.483036
upperneck 12.2816 -4.60237 3.77175
head 4.32947 -1.90687 1.17962
rclavicle -1.22625e-014 7.70291e-015
rhumerus -37.9417 -7.47964 -75.8978
rradius 46.2718
rwrist -8.35112
rhand -10.7245 -51.0397
rfingers 7.12502
rthumb -164.714 -260.455
lclavicle -1.22625e-014 7.70291e-015
lhumerus -21.5987 -18.0789 77.5889
lradius 42.2388
lwrist 4.3653
lhand -22.6386 -15.2606
lfingers 7.12502
lthumb 3.79208 14.6854
rfemur -58.3816 1.91428 10.1947
rtibia 32.197
rfoot -15.1909 -7.58337
rtoes -10.3321
lfemur -33.9346 -8.06838 -13.8858
ltibia 53.8842
lfoot 10.539 14.3652
ltoes -27.4169
472
root 3.08819 18.3005 11.5849 -147.183 -7.18564 174.758
lowerback -12.99 -3.69921 -2.05053
upperback 1.70515 -4.64998 0.306248
thorax 9.3226 -2.36008 0.507564
lowerneck -1.35469 -3.57475 -0.886251
upperneck 12.685 -4.67208 4.03475
head 4.57525 -1.93196 1.33407
rclavicle 2.12078e-014 1.26725e-015
rhumerus -37.6114 -7.14671 -76.0201
rradius 46.0502
rwrist -8.36199
rhand -10.6398 -51.2405
rfingers 7.12502
rthumb -164.633 -260.649
lclavicle 2.12078e-014 1.26725e-015
lhumerus -21.9159 -17.5599 77.7338
lradius 41.8814
lwrist 4.50336
lhand -22.4322 -14.9222
lfingers 7.12502
lthumb 3.99145 15.0202
rfemur -57.7805 2.20223 10.4418
rtibia 31.7391
rfoot -15.625 -7.69654
rtoes -8.4893
lfemur -34.8635 -8.09374 -14.0636
ltibia 55.4881
lfoot 9.6585 13.1923
ltoes -26.4182
473
root 3.12081 18.3279 11.5237 -147.359 -7.21121 174.845
lowerback -13.2428 -3.79626 -2.26888
upperback 1.26125 -4.75659 0.406335
thorax 9.01414 -2.42592 0.714193
lowerneck 0.445914 -3.43631 -1.33213
upperneck 12.4813 -4.37769 4.07107
head 4.15315 -1.79993 1.46105
rclavicle -6.09523e-014 2.09221e-014
rhumerus -38.5599 -6.39988 -75.9584
rradius 45.9831
rwrist -8.56899
rhand -10.1737 -51.0556
rfingers 7.12502
rthumb -164.184 -260.43
lclavicle -6.09523e-014 2.09221e-014
lhumerus -23.4604 -17.0211 78.2889
lradius 41.5177
lwrist 4.29303
lhand -22.3161 -14.4668
lfingers 7.12502
lthumb 4.10355 15.4734
rfemur -57.0331 2.55463 10.6412
rtibia 31.1214
rfoot -15.4844 -8.01672
rtoes -8.25675
lfemur -35.7134 -8.16804 -14.2255
ltibia 56.9761
lfoot 8.88175 12.0167
ltoes -25.8284
